<svg width="313" height="80" viewBox="0 0 313 80" fill="none" xmlns="http://www.w3.org/2000/svg">
<g filter="url(#filter0_b_172_125)">
<g clip-path="url(#clip0_172_125)">
<rect width="80" height="80" rx="15" fill="#898989" fill-opacity="0.05"/>
<path d="M39.3244 38.873L36.7529 41.4445L33.7892 38.4808L36.0991 36.1708C42.2009 30.069 40.8498 25.4055 37.3631 21.9188C33.8763 18.4321 28.8642 17.7783 24.375 22.2675C18.7962 27.8463 19.6679 33.1635 23.9828 38.0013L20.2781 41.706C15.1788 36.0836 12.6509 27.977 21.3677 19.2602C28.6898 11.9381 36.0991 13.0712 40.8934 17.8655C46.908 23.8801 46.2978 31.8996 39.3244 38.873ZM52.7483 47.4155L48.2155 51.9483L44.3801 48.1129L48.9129 43.5801L52.7483 47.4155Z" fill="url(#paint0_linear_172_125)"/>
<path d="M40.5823 40.5275L43.1538 37.956L46.1175 40.9197L43.8075 43.2297C37.7058 49.3315 39.0569 53.995 42.5436 57.4817C46.0303 60.9684 51.0425 61.6222 55.5316 57.133C61.1104 51.5543 60.2387 46.237 55.9239 41.3992L59.6286 37.6945C64.7279 43.3169 67.2558 51.4235 58.539 60.1403C51.2168 67.4624 43.8075 66.3293 39.0133 61.535C32.9987 55.5204 33.6089 47.5009 40.5823 40.5275ZM27.1584 31.985L31.6912 27.4523L35.5266 31.2877L30.9938 35.8204L27.1584 31.985Z" fill="url(#paint1_linear_172_125)"/>
</g>
<rect x="0.5" y="0.5" width="79" height="79" rx="14.5" stroke="white" stroke-opacity="0.09"/>
</g>
<circle cx="117" cy="45" r="13" fill="#060D1F"/>
<path d="M295.312 53.984C294.737 54.688 293.969 55.2 293.201 55.648L291.6 56.416L292.048 57.248L293.136 56.672C294.16 56.224 295.248 55.968 296.336 55.968H312.208V61.28H285.648V55.968L301.648 36.704C302.288 36 303.056 35.36 303.888 34.912L305.36 34.208L304.912 33.376L303.76 33.952C302.8 34.4 301.712 34.656 300.624 34.656H285.648V29.344H312.208V34.656L295.312 53.984Z" fill="white"/>
<path d="M281.379 61.28H274.339V29.344H281.379V61.28ZM281.379 27.552H274.339V20.512H281.379V27.552Z" fill="white"/>
<path d="M261.553 29.344H268.658V61.28H261.553V60.832C261.553 59.872 261.745 58.848 262.193 57.952L263.729 54.368L262.897 53.984L261.617 56.8C260.913 58.4 259.698 59.68 258.098 60.384C255.474 61.536 252.594 62.176 249.521 62.176C241.201 62.112 234.546 55.328 234.546 47.072V29.344H241.585V47.072C241.585 52 245.169 55.968 249.585 55.968C256.177 55.968 261.553 51.168 261.553 45.344V29.344Z" fill="white"/>
<path d="M230.718 39.968C230.718 45.472 228.542 50.464 224.83 54.304C225.854 54.816 226.942 55.072 228.094 55.072V61.28C224.894 61.28 221.886 60.256 219.454 58.528C215.55 60.832 210.878 62.176 205.886 62.176C192.19 62.176 181.118 52.256 181.118 39.968C181.118 27.744 192.19 17.824 205.886 17.824C219.646 17.824 230.718 27.744 230.718 39.968ZM220.542 49.056C222.462 46.432 223.614 43.36 223.614 39.968C223.614 31.2 215.678 24.032 205.886 24.032C196.094 24.032 188.158 31.2 188.158 39.968C188.158 48.8 196.094 55.968 205.886 55.968C209.214 55.968 212.35 55.136 214.974 53.664C213.758 51.488 212.99 48.928 212.99 46.176H220.094C220.094 47.2 220.222 48.16 220.542 49.056Z" fill="white"/>
<path d="M178.421 45.344C178.421 46.24 178.357 47.136 178.165 47.968H147.765C149.109 52.576 153.781 55.968 159.349 55.968C162.933 55.968 166.069 54.56 168.309 52.384H176.629C173.621 58.144 167.029 62.176 159.349 62.176C148.853 62.176 140.341 54.624 140.341 45.344C140.341 36 148.853 28.448 159.349 28.448C168.885 28.448 176.757 34.592 178.165 42.656C178.357 43.552 178.421 44.384 178.421 45.344ZM150.133 42.656H170.933C169.653 38.048 164.917 34.656 159.349 34.656C154.101 34.656 149.685 37.664 148.021 41.824C147.893 42.336 147.637 42.784 147.381 43.168L146.101 45.024L146.933 45.6L148.149 43.68C148.597 43.04 149.301 42.656 150.133 42.656Z" fill="white"/>
<path d="M128.976 18.72H136.08V61.28H128.976V45.344C128.976 39.456 123.664 34.656 117.008 34.656C110.416 34.656 105.04 39.456 105.04 45.344C105.04 51.168 108.624 55.968 113.04 55.968C117.456 55.968 121.04 52 121.04 47.072H128.08C128.08 55.392 121.36 62.176 113.04 62.176C104.72 62.176 98 54.624 98 45.344C98 36 106.512 28.448 117.008 28.448C120.016 28.448 122.896 29.088 125.392 30.176C127.056 30.88 128.336 32.224 129.104 33.824L130.32 36.64L131.216 36.256L129.616 32.672C129.232 31.776 128.976 30.816 128.976 29.792V18.72Z" fill="white"/>
<defs>
<filter id="filter0_b_172_125" x="-150" y="-150" width="380" height="380" filterUnits="userSpaceOnUse" color-interpolation-filters="sRGB">
<feFlood flood-opacity="0" result="BackgroundImageFix"/>
<feGaussianBlur in="BackgroundImageFix" stdDeviation="75"/>
<feComposite in2="SourceAlpha" operator="in" result="effect1_backgroundBlur_172_125"/>
<feBlend mode="normal" in="SourceGraphic" in2="effect1_backgroundBlur_172_125" result="shape"/>
</filter>
<linearGradient id="paint0_linear_172_125" x1="17.1165" y1="16.5752" x2="50.387" y2="50.3527" gradientUnits="userSpaceOnUse">
<stop stop-color="#5B596E"/>
<stop offset="1" stop-color="white"/>
</linearGradient>
<linearGradient id="paint1_linear_172_125" x1="62.7902" y1="62.8253" x2="29.5197" y2="29.0479" gradientUnits="userSpaceOnUse">
<stop stop-color="#5B596E"/>
<stop offset="1" stop-color="white"/>
</linearGradient>
<clipPath id="clip0_172_125">
<rect width="80" height="80" rx="15" fill="white"/>
</clipPath>
</defs>
</svg>
