<svg width="600" height="761" viewBox="0 0 600 761" fill="none" xmlns="http://www.w3.org/2000/svg">
<path d="M343.806 58.6363H261.353V61.3072H343.806V58.6363Z" fill="#C69866"/>
<path d="M302.698 137.908L254.416 49.6422L168.28 2.54045L169.561 0.197388L256.383 47.6755L302.698 132.342L349.011 47.6755L435.833 0.197388L437.114 2.54045L350.978 49.6422L302.698 137.908Z" fill="#C69866"/>
<path d="M260.769 120.336L259.986 118.901L231.34 66.534L114.314 2.54045L115.596 0.197388L233.309 64.5673L261.832 116.712L287.247 102.814L302.697 74.5691L318.146 102.814L343.561 116.713L372.084 64.5673L489.797 0.197388L491.079 2.54045L374.051 66.534L344.62 120.334L316.179 104.781L302.697 80.1346L289.214 104.781L260.769 120.336Z" fill="#C69866"/>
<path d="M302.352 111.195L274.356 60.7513L276.691 59.4559L302.336 105.662L327.562 59.559L329.903 60.84L302.352 111.195Z" fill="#FFE8D2"/>
<path d="M529.404 60.424C529.232 60.424 529.058 60.3914 528.894 60.3226C528.394 60.1164 528.07 59.6297 528.07 59.0887V18.7193C528.07 18.3647 528.211 18.0264 528.461 17.7749L545.848 0.391012C546.229 0.00924735 546.803 -0.10474 547.303 0.101521C547.802 0.307783 548.126 0.794489 548.126 1.33547V41.703C548.126 42.0576 547.985 42.396 547.735 42.6475L530.349 60.0332C530.093 60.2883 529.751 60.424 529.404 60.424ZM530.739 19.273V55.8663L545.457 41.1512V4.55786L530.739 19.273Z" fill="#C69866"/>
<path d="M529.156 60.424C528.808 60.424 528.466 60.2883 528.211 60.0332L510.824 42.6475C510.575 42.3978 510.434 42.0576 510.434 41.703V1.33547C510.434 0.796298 510.759 0.309592 511.257 0.101521C511.758 -0.10474 512.33 0.00924735 512.712 0.391012L530.098 17.7749C530.348 18.0246 530.489 18.3647 530.489 18.7193V59.0887C530.489 59.6279 530.163 60.1146 529.666 60.3226C529.501 60.3914 529.327 60.424 529.156 60.424ZM513.103 41.1512L527.82 55.8663V19.273L513.103 4.55786V41.1512Z" fill="#C69866"/>
<path d="M494.133 60.424C493.962 60.424 493.788 60.3914 493.623 60.3226C493.124 60.1164 492.8 59.6297 492.8 59.0887V18.7193C492.8 18.3647 492.941 18.0264 493.191 17.7749L510.577 0.391012C510.959 0.00924735 511.533 -0.10474 512.032 0.101521C512.531 0.307783 512.855 0.794489 512.855 1.33547V41.703C512.855 42.0576 512.714 42.396 512.465 42.6475L495.078 60.0332C494.823 60.2883 494.481 60.424 494.133 60.424ZM495.469 19.273V55.8663L510.186 41.1512V4.55786L495.469 19.273Z" fill="#C69866"/>
<path d="M493.888 60.424C493.541 60.424 493.199 60.2883 492.943 60.0332L475.557 42.6475C475.307 42.3978 475.166 42.0576 475.166 41.703V8.99067H477.837V41.1494L492.554 55.8645V19.2712L480.508 7.22659L482.395 5.33948L494.833 17.7749C495.082 18.0246 495.223 18.3647 495.223 18.7193V59.0887C495.223 59.6279 494.898 60.1146 494.4 60.3226C494.235 60.3914 494.062 60.424 493.89 60.424H493.888Z" fill="#C69866"/>
<path d="M458.863 60.4238C458.691 60.4238 458.517 60.3912 458.353 60.3225C457.853 60.1162 457.529 59.6295 457.529 59.0885V18.7192H460.2V55.8643L474.918 41.1492V9.12622H477.589V41.7029C477.589 42.0575 477.447 42.3958 477.198 42.6473L459.811 60.033C459.556 60.2881 459.214 60.4238 458.867 60.4238H458.863Z" fill="#C69866"/>
<path d="M458.616 60.424C458.269 60.424 457.927 60.2883 457.672 60.0332L440.285 42.6475C440.036 42.3978 439.895 42.0577 439.895 41.703V28.278H442.565V41.1494L457.283 55.8645V18.7194H459.954V59.0887C459.954 59.6279 459.628 60.1146 459.13 60.3227C458.966 60.3914 458.792 60.424 458.62 60.424H458.616Z" fill="#C69866"/>
<path d="M423.594 60.4239C423.422 60.4239 423.249 60.3913 423.084 60.3225C422.585 60.1163 422.261 59.6296 422.261 59.0886V37.9214H424.932V55.8644L439.649 41.1493V28.4135H442.32V41.7029C442.32 42.0575 442.179 42.3959 441.929 42.6474L424.543 60.033C424.287 60.2882 423.945 60.4239 423.598 60.4239H423.594Z" fill="#C69866"/>
<path d="M423.346 60.4239C422.998 60.4239 422.656 60.2882 422.401 60.0331L408.804 46.4379L410.691 44.5508L422.01 55.868V38.0608H424.681V59.0922C424.681 59.6314 424.355 60.1181 423.858 60.3262C423.693 60.3949 423.519 60.4275 423.347 60.4275L423.346 60.4239Z" fill="#C69866"/>
<path d="M389.658 27.6989H386.987V18.7193C386.987 18.3647 387.128 18.0264 387.378 17.7749L404.765 0.391012C405.146 0.00924735 405.72 -0.10474 406.22 0.101521C406.719 0.307783 407.043 0.794489 407.043 1.33547V18.191H404.372V4.55786L389.655 19.273V27.6989H389.658Z" fill="#C69866"/>
<path d="M372.024 37.3426H369.354V1.33547C369.354 0.796298 369.679 0.309592 370.177 0.101521C370.678 -0.10474 371.25 0.00924735 371.632 0.391012L389.018 17.7749C389.268 18.0246 389.409 18.3647 389.409 18.7193V27.8346H386.738V19.273L372.021 4.55786V37.3426H372.024Z" fill="#C69866"/>
<path d="M354.389 46.9861H351.718V18.721C351.718 18.3664 351.859 18.0281 352.109 17.7766L369.495 0.392719C369.877 0.0109543 370.451 -0.103031 370.95 0.103231C371.449 0.309492 371.773 0.796196 371.773 1.33718V37.48H369.102V4.55956L354.385 19.2747V46.9879L354.389 46.9861Z" fill="#C69866"/>
<path d="M346.356 54.5274L334.474 42.6475C334.224 42.3978 334.083 42.0576 334.083 41.703V1.33547C334.083 0.796298 334.409 0.309592 334.906 0.101521C335.408 -0.10474 335.979 0.00924735 336.361 0.391012L353.748 17.7749C353.997 18.0246 354.139 18.3647 354.139 18.7193V47.1201H351.468V19.2712L336.75 4.55605V41.1494L348.241 52.6385L346.354 54.5256L346.356 54.5274Z" fill="#C69866"/>
<path d="M317.782 60.424C317.61 60.424 317.436 60.3914 317.272 60.3226C316.772 60.1164 316.448 59.6297 316.448 59.0887V18.7193C316.448 18.3647 316.589 18.0264 316.839 17.7749L334.226 0.391012C334.607 0.00924735 335.181 -0.10474 335.68 0.101521C336.18 0.307783 336.504 0.794489 336.504 1.33547V41.703C336.504 42.0576 336.363 42.396 336.113 42.6475L318.726 60.0332C318.471 60.2883 318.129 60.424 317.782 60.424ZM319.119 19.273V55.8663L333.836 41.1512V4.55786L319.119 19.273Z" fill="#C69866"/>
<path d="M317.536 60.424C317.189 60.424 316.847 60.2883 316.592 60.0332L299.205 42.6475C298.956 42.3978 298.814 42.0576 298.814 41.703V1.33547C298.814 0.796298 299.14 0.309592 299.638 0.101521C300.139 -0.10474 300.711 0.00924735 301.093 0.391012L318.479 17.7749C318.729 18.0246 318.87 18.3647 318.87 18.7193V59.0887C318.87 59.6279 318.544 60.1146 318.047 60.3226C317.882 60.3914 317.708 60.424 317.536 60.424ZM301.484 41.1512L316.201 55.8663V19.273L301.484 4.55786V41.1512Z" fill="#C69866"/>
<path d="M282.513 60.424C282.341 60.424 282.168 60.3914 282.003 60.3226C281.504 60.1164 281.18 59.6297 281.18 59.0887V18.7193C281.18 18.3647 281.321 18.0264 281.571 17.7749L298.957 0.391012C299.339 0.00924735 299.912 -0.10474 300.412 0.101521C300.911 0.307783 301.235 0.794489 301.235 1.33547V41.703C301.235 42.0576 301.094 42.396 300.844 42.6475L283.458 60.0332C283.203 60.2883 282.861 60.424 282.513 60.424ZM283.849 19.273V55.8663L298.566 41.1512V4.55786L283.849 19.273Z" fill="#C69866"/>
<path d="M282.265 60.424C281.917 60.424 281.575 60.2883 281.32 60.0332L263.934 42.6475C263.684 42.3978 263.543 42.0576 263.543 41.703V1.33547C263.543 0.796298 263.869 0.309592 264.366 0.101521C264.868 -0.10474 265.439 0.00924735 265.821 0.391012L283.208 17.7749C283.457 18.0246 283.599 18.3647 283.599 18.7193V59.0887C283.599 59.6279 283.273 60.1146 282.775 60.3226C282.611 60.3914 282.437 60.424 282.265 60.424ZM266.214 41.1512L280.931 55.8663V19.273L266.214 4.55786V41.1512Z" fill="#C69866"/>
<path d="M257.148 51.0733L255.261 49.1862L263.297 41.1511V4.55776L248.58 19.2729V44.1998H245.909V18.721C245.909 18.3664 246.05 18.0281 246.3 17.7766L263.687 0.392719C264.068 0.0109543 264.642 -0.103031 265.141 0.103231C265.641 0.309492 265.965 0.796196 265.965 1.33718V41.7047C265.965 42.0594 265.824 42.3977 265.574 42.6492L257.147 51.0752L257.148 51.0733Z" fill="#C69866"/>
<path d="M248.33 44.0642H245.659V19.273L230.941 4.55786V34.5562H228.271V1.33547C228.271 0.796298 228.596 0.309592 229.094 0.101521C229.595 -0.10474 230.167 0.00924735 230.549 0.391012L247.935 17.7749C248.185 18.0246 248.326 18.3647 248.326 18.7193V44.0624L248.33 44.0642Z" fill="#C69866"/>
<path d="M230.696 34.4204H228.025V4.55776L213.308 19.2729V24.9125H210.637V18.721C210.637 18.3664 210.778 18.0281 211.028 17.7766L228.414 0.392719C228.796 0.0109543 229.37 -0.103031 229.869 0.103231C230.368 0.309492 230.692 0.796196 230.692 1.33718V34.4223L230.696 34.4204Z" fill="#C69866"/>
<path d="M211.973 60.4248C211.801 60.4248 211.628 60.3922 211.463 60.3235C210.964 60.1172 210.64 59.6304 210.64 59.0893V54.4224H213.311V55.8665L214.049 55.13L215.936 57.0174L212.92 60.0339C212.665 60.2891 212.323 60.4248 211.975 60.4248H211.973Z" fill="#C69866"/>
<path d="M213.062 24.7769H210.391V19.273L195.674 4.55786V15.269H193.003V1.33547C193.003 0.796298 193.329 0.309592 193.826 0.101521C194.328 -0.10474 194.899 0.00924735 195.281 0.391012L212.668 17.7749C212.917 18.0246 213.059 18.3647 213.059 18.7193V24.7751L213.062 24.7769Z" fill="#C69866"/>
<path d="M211.727 60.4239C211.379 60.4239 211.037 60.2882 210.782 60.0331L200.184 49.4359L202.071 47.5488L210.39 55.8662V54.2885H213.061V59.0904C213.061 59.6296 212.735 60.1163 212.237 60.3244C212.073 60.3931 211.899 60.4257 211.727 60.4257V60.4239Z" fill="#C69866"/>
<path d="M176.704 60.4239C176.532 60.4239 176.358 60.3914 176.193 60.3226C175.696 60.1164 175.37 59.6296 175.37 59.0887V35.1352H178.041V55.8663L191.249 42.6601L193.137 44.5472L177.65 60.0313C177.395 60.2864 177.053 60.4221 176.706 60.4221L176.704 60.4239Z" fill="#C69866"/>
<path d="M195.426 15.1333H192.755V4.55786L186.114 11.198L184.227 9.31092L193.148 0.391012C193.528 0.00924735 194.103 -0.10474 194.603 0.101521C195.102 0.307783 195.426 0.794489 195.426 1.33547V15.1333Z" fill="#C69866"/>
<path d="M176.456 60.4239C176.109 60.4239 175.767 60.2882 175.512 60.0331L158.125 42.6474C157.876 42.3977 157.734 42.0576 157.734 41.7029V25.4915H160.405V41.1493L175.123 55.8644V34.9995H177.794V59.0886C177.794 59.6278 177.468 60.1145 176.97 60.3226C176.806 60.3913 176.632 60.4239 176.46 60.4239H176.456Z" fill="#C69866"/>
<path d="M141.432 60.4239C141.26 60.4239 141.087 60.3913 140.922 60.3226C140.423 60.1163 140.099 59.6296 140.099 59.0886V18.7193C140.099 18.3646 140.24 18.0263 140.49 17.7748L142.346 15.9185L144.234 17.8056L142.768 19.2711V55.8644L157.485 41.1493V25.3558H160.156V41.703C160.156 42.0576 160.015 42.3959 159.765 42.6474L142.379 60.0331C142.124 60.2882 141.782 60.4239 141.434 60.4239H141.432Z" fill="#C69866"/>
<path d="M141.187 60.4239C140.839 60.4239 140.497 60.2882 140.242 60.0331L122.856 42.6474C122.606 42.3978 122.465 42.0576 122.465 41.703V6.20428H125.136V41.1493L139.853 55.8645V19.2711L133.606 13.0254L135.494 11.1383L142.131 17.7748C142.381 18.0245 142.522 18.3647 142.522 18.7193V59.0886C142.522 59.6278 142.197 60.1145 141.699 60.3226C141.534 60.3914 141.361 60.4239 141.189 60.4239H141.187Z" fill="#C69866"/>
<path d="M106.163 60.4238C105.991 60.4238 105.817 60.3913 105.652 60.3225C105.153 60.1163 104.829 59.6296 104.829 59.0886V18.7192C104.829 18.3646 104.97 18.0263 105.22 17.7748L119.546 3.45044L121.434 5.33755L107.498 19.2711V55.8644L122.216 41.1493V6.06851H124.887V41.7029C124.887 42.0575 124.745 42.3959 124.496 42.6474L107.109 60.033C106.854 60.2882 106.512 60.4238 106.165 60.4238H106.163Z" fill="#C69866"/>
<path d="M105.916 60.424C105.569 60.424 105.227 60.2883 104.972 60.0332L87.5852 42.6475C87.3355 42.3978 87.1943 42.0576 87.1943 41.703V1.33547C87.1943 0.796298 87.5201 0.309592 88.0177 0.101521C88.5189 -0.10474 89.0908 0.00924735 89.4726 0.391012L106.859 17.7749C107.109 18.0246 107.25 18.3647 107.25 18.7193V59.0887C107.25 59.6279 106.924 60.1146 106.427 60.3226C106.262 60.3914 106.088 60.424 105.916 60.424ZM89.8635 41.1512L104.581 55.8663V19.273L89.8635 4.55786V41.1512Z" fill="#C69866"/>
<path d="M70.8932 60.424C70.7213 60.424 70.5476 60.3914 70.3829 60.3226C69.8835 60.1164 69.5596 59.6297 69.5596 59.0887V18.7193C69.5596 18.3647 69.7007 18.0264 69.9504 17.7749L87.3369 0.391012C87.7187 0.00924735 88.2924 -0.10474 88.7918 0.101521C89.2913 0.307783 89.6152 0.794489 89.6152 1.33547V41.703C89.6152 42.0576 89.474 42.396 89.2243 42.6475L71.8378 60.0332C71.5827 60.2883 71.2407 60.424 70.8932 60.424ZM72.2287 19.273V55.8663L86.946 41.1512V4.55786L72.2287 19.273Z" fill="#C69866"/>
<path d="M70.6458 60.424C70.2983 60.424 69.9563 60.2883 69.7012 60.0332L52.3147 42.6475C52.065 42.3978 51.9238 42.0576 51.9238 41.703V1.33547C51.9238 0.796298 52.2496 0.309592 52.7472 0.101521C53.2484 -0.10474 53.8203 0.00924735 54.2021 0.391012L71.5886 17.7749C71.8383 18.0246 71.9794 18.3647 71.9794 18.7193V59.0887C71.9794 59.6279 71.6537 60.1146 71.1561 60.3226C70.9914 60.3914 70.8177 60.424 70.6458 60.424ZM54.593 41.1512L69.3103 55.8663V19.273L54.593 4.55786V41.1512Z" fill="#C69866"/>
<path d="M40.8817 36.7179L51.7695 25.8317L40.8817 14.9455L29.9938 25.8317L40.8817 36.7179Z" fill="#C69866"/>
<path d="M32.1762 36.0452L21.9629 25.8334L32.1762 15.6199L33.309 16.7525L24.2285 25.8334L33.309 34.9126L32.1762 36.0452Z" fill="#C69866"/>
<path d="M12.9273 37.851L0.90625 25.8335L12.9273 13.8143L17.6105 18.4968L16.4777 19.6294L12.9273 16.0795L3.17185 25.8335L12.9273 35.5875L16.4777 32.0358L17.6105 33.1685L12.9273 37.851Z" fill="#C69866"/>
<path d="M39.9589 15.8714L26.5535 2.46801L13.501 15.5186L12.3682 14.3859L26.5535 0.202759L41.0917 14.7388L39.9589 15.8714Z" fill="#C69866"/>
<path d="M26.5534 43.2427L9.1416 25.8336L26.5534 8.42255L37.0291 18.8985L35.8963 20.0311L26.5534 10.6878L11.4072 25.8336L26.5534 40.9775L35.8963 31.636L37.0291 32.7668L26.5534 43.2427Z" fill="#5E4123"/>
<path d="M27.3534 1.56342H25.752V9.57867H27.3534V1.56342Z" fill="#C69866"/>
<path d="M41.1614 36.8539L40.0286 35.7213L45.8084 29.9424L35.8955 20.0309L37.0283 18.8983L48.074 29.9424L41.1614 36.8539Z" fill="#C69866"/>
<path d="M26.5535 51.4624L12.3682 37.2792L13.501 36.1466L26.5535 49.1971L40.0294 35.7214L41.1622 36.854L26.5535 51.4624Z" fill="#C69866"/>
<path d="M27.3534 42.0865H25.752V50.1018H27.3534V42.0865Z" fill="#C69866"/>
<path d="M23.1105 74.6865L12.2227 63.8003L1.33481 74.6865L12.2227 85.5727L23.1105 74.6865Z" fill="#C69866"/>
<path d="M20.9297 84.9003L19.7969 83.7677L28.8774 74.6885L19.7969 65.6076L20.9297 64.475L31.143 74.6885L20.9297 84.9003Z" fill="#C69866"/>
<path d="M40.1783 86.7077L35.4951 82.0252L36.6279 80.8926L40.1783 84.4424L49.9338 74.6885L40.1783 64.9345L36.6279 68.4843L35.4951 67.3517L40.1783 62.6692L52.1994 74.6885L40.1783 86.7077Z" fill="#C69866"/>
<path d="M13.1484 64.7265L12.0156 63.5939L26.5538 49.0579L40.7391 63.2411L39.6063 64.3737L26.5538 51.3231L13.1484 64.7265Z" fill="#C69866"/>
<path d="M26.5538 92.0977L16.0781 81.6236L17.2109 80.4909L26.5538 89.8324L41.7 74.6885L26.5538 59.5427L17.2109 68.8842L16.0781 67.7516L26.5538 57.2793L43.9656 74.6885L26.5538 92.0977Z" fill="#FFE8D2"/>
<path d="M27.3534 50.4183H25.752V58.4335H27.3534V50.4183Z" fill="#C69866"/>
<path d="M11.9439 85.7108L5.03125 78.7974L16.0788 67.7516L17.2116 68.8842L7.29685 78.7974L13.0767 84.5782L11.9439 85.7108Z" fill="#C69866"/>
<path d="M26.553 100.317L11.9424 85.7108L13.0752 84.5782L26.553 98.0521L39.6055 85.0016L40.7383 86.1342L26.553 100.317Z" fill="#C69866"/>
<path d="M27.3534 90.9415H25.752V98.9568H27.3534V90.9415Z" fill="#C69866"/>
<path d="M40.8827 134.429L51.7705 123.543L40.8827 112.656L29.9948 123.543L40.8827 134.429Z" fill="#C69866"/>
<path d="M32.1762 133.755L21.9629 123.544L32.1762 113.33L33.309 114.463L24.2285 123.544L33.309 132.623L32.1762 133.755Z" fill="#C69866"/>
<path d="M12.9273 135.563L0.90625 123.544L12.9273 111.524L17.6105 116.207L16.4777 117.339L12.9273 113.79L3.17185 123.544L12.9273 133.298L16.4777 129.746L17.6105 130.879L12.9273 135.563Z" fill="#C69866"/>
<path d="M39.9589 113.581L26.5535 100.178L13.501 113.229L12.3682 112.096L26.5535 97.9128L41.0917 112.449L39.9589 113.581Z" fill="#C69866"/>
<path d="M26.5534 140.953L9.1416 123.544L26.5534 106.134L37.0291 116.608L35.8963 117.741L26.5534 108.4L11.4072 123.544L26.5534 138.688L35.8963 129.346L37.0291 130.479L26.5534 140.953Z" fill="#5E4123"/>
<path d="M27.3534 99.2734H25.752V107.289H27.3534V99.2734Z" fill="#C69866"/>
<path d="M41.1614 134.566L40.0286 133.433L45.8084 127.654L35.8955 117.741L37.0283 116.608L48.074 127.654L41.1614 134.566Z" fill="#C69866"/>
<path d="M26.5535 149.174L12.3682 134.989L13.501 133.857L26.5535 146.909L40.0294 133.433L41.1622 134.566L26.5535 149.174Z" fill="#C69866"/>
<path d="M27.3534 139.797H25.752V147.812H27.3534V139.797Z" fill="#C69866"/>
<path d="M23.1105 172.398L12.2227 161.511L1.33481 172.398L12.2227 183.284L23.1105 172.398Z" fill="#C69866"/>
<path d="M20.9297 182.61L19.7969 181.478L28.8774 172.399L19.7969 163.319L20.9297 162.187L31.143 172.399L20.9297 182.61Z" fill="#C69866"/>
<path d="M40.1783 184.418L35.4951 179.735L36.6279 178.603L40.1783 182.153L49.9338 172.399L40.1783 162.645L36.6279 166.194L35.4951 165.062L40.1783 160.379L52.1994 172.399L40.1783 184.418Z" fill="#C69866"/>
<path d="M13.1484 162.437L12.0156 161.304L26.5538 146.768L40.7391 160.951L39.6063 162.084L26.5538 149.033L13.1484 162.437Z" fill="#C69866"/>
<path d="M26.5538 189.808L16.0781 179.334L17.2109 178.201L26.5538 187.543L41.7 172.399L26.5538 157.255L17.2109 166.596L16.0781 165.463L26.5538 154.989L43.9656 172.399L26.5538 189.808Z" fill="#FFE8D2"/>
<path d="M27.3534 148.13H25.752V156.146H27.3534V148.13Z" fill="#C69866"/>
<path d="M11.9439 183.421L5.03125 176.508L16.0788 165.464L17.2116 166.596L7.29685 176.508L13.0767 182.288L11.9439 183.421Z" fill="#C69866"/>
<path d="M26.553 198.027L11.9424 183.421L13.0752 182.288L26.553 195.762L39.6055 182.713L40.7383 183.846L26.553 198.027Z" fill="#C69866"/>
<path d="M27.3534 188.652H25.752V196.667H27.3534V188.652Z" fill="#C69866"/>
<path d="M40.8836 232.14L51.7715 221.253L40.8836 210.367L29.9958 221.253L40.8836 232.14Z" fill="#C69866"/>
<path d="M32.1762 231.465L21.9629 221.254L32.1762 211.042L33.309 212.174L24.2285 221.254L33.309 230.333L32.1762 231.465Z" fill="#C69866"/>
<path d="M12.9273 233.273L0.90625 221.254L12.9273 209.234L17.6105 213.917L16.4777 215.05L12.9273 211.5L3.17185 221.254L12.9273 231.008L16.4777 227.458L17.6105 228.59L12.9273 233.273Z" fill="#C69866"/>
<path d="M39.9589 211.292L26.5535 197.888L13.501 210.939L12.3682 209.806L26.5535 195.623L41.0917 210.159L39.9589 211.292Z" fill="#C69866"/>
<path d="M26.5534 238.663L9.1416 221.254L26.5534 203.844L37.0291 214.319L35.8963 215.451L26.5534 206.11L11.4072 221.254L26.5534 236.398L35.8963 227.056L37.0291 228.189L26.5534 238.663Z" fill="#5E4123"/>
<path d="M27.3534 196.985H25.752V205.001H27.3534V196.985Z" fill="#C69866"/>
<path d="M41.1614 232.276L40.0286 231.143L45.8084 225.364L35.8955 215.451L37.0283 214.318L48.074 225.364L41.1614 232.276Z" fill="#C69866"/>
<path d="M26.5535 246.884L12.3682 232.699L13.501 231.567L26.5535 244.619L40.0294 231.143L41.1622 232.276L26.5535 246.884Z" fill="#C69866"/>
<path d="M27.3534 237.507H25.752V245.522H27.3534V237.507Z" fill="#C69866"/>
<path d="M116.884 125.695C118.316 127.126 118.316 129.446 116.884 130.875C115.453 132.304 113.133 132.306 111.703 130.875C110.272 129.444 110.272 127.124 111.703 125.695C113.135 124.265 115.455 124.264 116.884 125.695Z" fill="#5E4123"/>
<path d="M569.739 25.8321L558.852 14.9459L547.964 25.8321L558.852 36.7183L569.739 25.8321Z" fill="#C69866"/>
<path d="M567.558 36.0452L566.425 34.9126L575.505 25.8334L566.425 16.7525L567.558 15.6199L577.771 25.8334L567.558 36.0452Z" fill="#C69866"/>
<path d="M586.806 37.851L582.123 33.1685L583.256 32.0358L586.806 35.5875L596.562 25.8335L586.806 16.0795L583.256 19.6294L582.123 18.4968L586.806 13.8143L598.827 25.8335L586.806 37.851Z" fill="#C69866"/>
<path d="M559.774 15.8714L558.642 14.7388L573.18 0.202759L587.365 14.3859L586.232 15.5186L573.18 2.46801L559.774 15.8714Z" fill="#C69866"/>
<path d="M573.179 43.2427L562.703 32.7668L563.836 31.636L573.179 40.9775L588.325 25.8336L573.179 10.6878L563.836 20.0311L562.703 18.8985L573.179 8.42255L590.591 25.8336L573.179 43.2427Z" fill="#C69866"/>
<path d="M573.981 1.56342H572.38V9.57867H573.981V1.56342Z" fill="#C69866"/>
<path d="M558.57 36.8539L551.657 29.9424L562.703 18.8983L563.836 20.0309L553.923 29.9424L559.703 35.7213L558.57 36.8539Z" fill="#C69866"/>
<path d="M573.179 51.4624L558.57 36.854L559.703 35.7214L573.179 49.1971L586.232 36.1466L587.364 37.2792L573.179 51.4624Z" fill="#C69866"/>
<path d="M573.981 42.0865H572.38V50.1018H573.981V42.0865Z" fill="#C69866"/>
<path d="M587.511 85.5735L598.398 74.6873L587.511 63.801L576.623 74.6873L587.511 85.5735Z" fill="#C69866"/>
<path d="M578.804 84.9003L568.591 74.6885L578.804 64.475L579.937 65.6076L570.856 74.6885L579.937 83.7677L578.804 84.9003Z" fill="#C69866"/>
<path d="M559.555 86.7077L547.534 74.6885L559.555 62.6692L564.238 67.3517L563.106 68.4843L559.555 64.9345L549.8 74.6885L559.555 84.4424L563.106 80.8926L564.238 82.0252L559.555 86.7077Z" fill="#C69866"/>
<path d="M586.585 64.7265L573.179 51.3231L560.127 64.3737L558.994 63.2411L573.179 49.0579L587.718 63.5939L586.585 64.7265Z" fill="#C69866"/>
<path d="M573.18 92.0977L555.769 74.6885L573.18 57.2793L583.656 67.7516L582.523 68.8842L573.18 59.5427L558.034 74.6885L573.18 89.8324L582.523 80.4909L583.656 81.6236L573.18 92.0977Z" fill="#5E4123"/>
<path d="M573.981 50.4183H572.38V58.4335H573.981V50.4183Z" fill="#C69866"/>
<path d="M587.79 85.7108L586.657 84.5782L592.437 78.7974L582.522 68.8842L583.655 67.7516L594.703 78.7974L587.79 85.7108Z" fill="#C69866"/>
<path d="M573.179 100.317L558.994 86.1342L560.127 85.0016L573.179 98.0521L586.657 84.5782L587.79 85.7108L573.179 100.317Z" fill="#C69866"/>
<path d="M573.981 90.9415H572.38V98.9568H573.981V90.9415Z" fill="#C69866"/>
<path d="M569.74 123.541L558.853 112.655L547.965 123.541L558.853 134.428L569.74 123.541Z" fill="#C69866"/>
<path d="M567.558 133.755L566.425 132.623L575.505 123.544L566.425 114.463L567.558 113.33L577.771 123.544L567.558 133.755Z" fill="#C69866"/>
<path d="M586.806 135.563L582.123 130.879L583.256 129.746L586.806 133.298L596.562 123.544L586.806 113.79L583.256 117.339L582.123 116.207L586.806 111.524L598.827 123.544L586.806 135.563Z" fill="#C69866"/>
<path d="M559.774 113.581L558.642 112.449L573.18 97.9128L587.365 112.096L586.232 113.229L573.18 100.178L559.774 113.581Z" fill="#C69866"/>
<path d="M573.179 140.953L562.703 130.479L563.836 129.346L573.179 138.688L588.325 123.544L573.179 108.4L563.836 117.741L562.703 116.608L573.179 106.134L590.591 123.544L573.179 140.953Z" fill="#C69866"/>
<path d="M573.981 99.2734H572.38V107.289H573.981V99.2734Z" fill="#C69866"/>
<path d="M558.57 134.566L551.657 127.654L562.703 116.608L563.836 117.741L553.923 127.654L559.703 133.433L558.57 134.566Z" fill="#C69866"/>
<path d="M573.179 149.174L558.57 134.566L559.703 133.433L573.179 146.909L586.232 133.857L587.364 134.989L573.179 149.174Z" fill="#C69866"/>
<path d="M573.981 139.797H572.38V147.812H573.981V139.797Z" fill="#C69866"/>
<path d="M587.511 183.284L598.398 172.398L587.511 161.512L576.623 172.398L587.511 183.284Z" fill="#C69866"/>
<path d="M578.804 182.61L568.591 172.399L578.804 162.187L579.937 163.319L570.856 172.399L579.937 181.478L578.804 182.61Z" fill="#C69866"/>
<path d="M559.555 184.418L547.534 172.399L559.555 160.379L564.238 165.062L563.106 166.194L559.555 162.645L549.8 172.399L559.555 182.153L563.106 178.603L564.238 179.735L559.555 184.418Z" fill="#C69866"/>
<path d="M586.585 162.437L573.179 149.033L560.127 162.084L558.994 160.951L573.179 146.768L587.718 161.304L586.585 162.437Z" fill="#C69866"/>
<path d="M573.18 189.808L555.769 172.399L573.18 154.989L583.656 165.463L582.523 166.596L573.18 157.255L558.034 172.399L573.18 187.543L582.523 178.201L583.656 179.334L573.18 189.808Z" fill="#FFE8D2"/>
<path d="M573.981 148.13H572.38V156.146H573.981V148.13Z" fill="#C69866"/>
<path d="M587.79 183.421L586.657 182.288L592.437 176.508L582.522 166.596L583.655 165.464L594.703 176.508L587.79 183.421Z" fill="#C69866"/>
<path d="M573.179 198.027L558.994 183.846L560.127 182.713L573.179 195.762L586.657 182.288L587.79 183.421L573.179 198.027Z" fill="#C69866"/>
<path d="M573.981 188.652H572.38V196.667H573.981V188.652Z" fill="#C69866"/>
<path d="M569.739 221.253L558.852 210.366L547.964 221.253L558.852 232.139L569.739 221.253Z" fill="#C69866"/>
<path d="M567.558 231.465L566.425 230.333L575.505 221.254L566.425 212.174L567.558 211.042L577.771 221.254L567.558 231.465Z" fill="#C69866"/>
<path d="M586.806 233.273L582.123 228.59L583.256 227.458L586.806 231.008L596.562 221.254L586.806 211.5L583.256 215.05L582.123 213.917L586.806 209.234L598.827 221.254L586.806 233.273Z" fill="#C69866"/>
<path d="M559.774 211.292L558.642 210.159L573.18 195.623L587.365 209.806L586.232 210.939L573.18 197.888L559.774 211.292Z" fill="#C69866"/>
<path d="M573.179 238.663L562.703 228.189L563.836 227.056L573.179 236.398L588.325 221.254L573.179 206.11L563.836 215.451L562.703 214.319L573.179 203.844L590.591 221.254L573.179 238.663Z" fill="#C69866"/>
<path d="M573.981 196.985H572.38V205.001H573.981V196.985Z" fill="#C69866"/>
<path d="M558.57 232.276L551.657 225.364L562.703 214.318L563.836 215.451L553.923 225.364L559.703 231.143L558.57 232.276Z" fill="#C69866"/>
<path d="M573.179 246.884L558.57 232.276L559.703 231.143L573.179 244.619L586.232 231.567L587.364 232.699L573.179 246.884Z" fill="#C69866"/>
<path d="M573.981 237.507H572.38V245.522H573.981V237.507Z" fill="#C69866"/>
<path d="M482.849 125.695C481.418 127.126 481.418 129.446 482.849 130.875C484.28 132.306 486.6 132.306 488.03 130.875C489.461 129.444 489.461 127.124 488.03 125.695C486.598 124.264 484.278 124.264 482.849 125.695Z" fill="#5E4123"/>
<path d="M343.806 702.007H261.353V699.336H343.806V702.007Z" fill="#C69866"/>
<path d="M302.698 622.735L254.416 711.001L168.28 758.103L169.561 760.446L256.383 712.968L302.698 628.301L349.011 712.968L435.833 760.446L437.114 758.103L350.978 711.001L302.698 622.735Z" fill="#C69866"/>
<path d="M260.769 640.308L259.986 641.742L231.34 694.109L114.314 758.103L115.596 760.446L233.309 696.076L261.832 643.932L287.247 657.829L302.697 686.074L318.146 657.829L343.561 643.93L372.084 696.076L489.797 760.446L491.079 758.103L374.051 694.109L344.62 640.309L316.179 655.862L302.697 680.509L289.214 655.862L260.769 640.308Z" fill="#C69866"/>
<path d="M302.352 649.448L274.356 699.892L276.691 701.187L302.336 654.981L327.562 701.084L329.903 699.803L302.352 649.448Z" fill="#FFE8D2"/>
<path d="M529.404 700.219C529.232 700.219 529.058 700.252 528.894 700.321C528.394 700.527 528.07 701.014 528.07 701.555V741.924C528.07 742.279 528.211 742.617 528.461 742.868L545.848 760.252C546.229 760.634 546.803 760.748 547.303 760.542C547.802 760.335 548.126 759.849 548.126 759.308V718.94C548.126 718.586 547.985 718.247 547.735 717.996L530.349 700.61C530.093 700.355 529.751 700.219 529.404 700.219ZM530.739 741.37V704.777L545.457 719.492V756.085L530.739 741.37Z" fill="#C69866"/>
<path d="M529.156 700.219C528.808 700.219 528.466 700.355 528.211 700.61L510.824 717.996C510.575 718.245 510.434 718.586 510.434 718.94V759.308C510.434 759.847 510.759 760.334 511.257 760.542C511.758 760.748 512.33 760.634 512.712 760.252L530.098 742.868C530.348 742.619 530.489 742.279 530.489 741.924V701.555C530.489 701.015 530.163 700.529 529.666 700.321C529.501 700.252 529.327 700.219 529.156 700.219ZM513.103 719.492L527.82 704.777V741.37L513.103 756.085V719.492Z" fill="#C69866"/>
<path d="M494.133 700.219C493.962 700.219 493.788 700.252 493.623 700.321C493.124 700.527 492.8 701.014 492.8 701.555V741.924C492.8 742.279 492.941 742.617 493.191 742.868L510.577 760.252C510.959 760.634 511.533 760.748 512.032 760.542C512.531 760.335 512.855 759.849 512.855 759.308V718.94C512.855 718.586 512.714 718.247 512.465 717.996L495.078 700.61C494.823 700.355 494.481 700.219 494.133 700.219ZM495.469 741.37V704.777L510.186 719.492V756.085L495.469 741.37Z" fill="#C69866"/>
<path d="M493.888 700.219C493.541 700.219 493.199 700.355 492.943 700.61L475.557 717.996C475.307 718.245 475.166 718.586 475.166 718.94V751.653H477.837V719.494L492.554 704.779V741.372L480.508 753.417L482.395 755.304L494.833 742.868C495.082 742.619 495.223 742.279 495.223 741.924V701.555C495.223 701.015 494.898 700.529 494.4 700.321C494.235 700.252 494.062 700.219 493.89 700.219H493.888Z" fill="#C69866"/>
<path d="M458.863 700.219C458.691 700.219 458.517 700.252 458.353 700.321C457.853 700.527 457.529 701.014 457.529 701.555V741.924H460.2V704.779L474.918 719.494V751.517H477.589V718.94C477.589 718.586 477.447 718.247 477.198 717.996L459.811 700.61C459.556 700.355 459.214 700.219 458.867 700.219H458.863Z" fill="#C69866"/>
<path d="M458.616 700.219C458.269 700.219 457.927 700.355 457.672 700.61L440.285 717.996C440.036 718.245 439.895 718.586 439.895 718.94V732.365H442.565V719.494L457.283 704.779V741.924H459.954V701.554C459.954 701.015 459.628 700.529 459.13 700.321C458.966 700.252 458.792 700.219 458.62 700.219H458.616Z" fill="#C69866"/>
<path d="M423.594 700.219C423.422 700.219 423.249 700.252 423.084 700.321C422.585 700.527 422.261 701.014 422.261 701.555V722.722H424.932V704.779L439.649 719.494V732.23H442.32V718.94C442.32 718.586 442.179 718.247 441.929 717.996L424.543 700.61C424.287 700.355 423.945 700.219 423.598 700.219H423.594Z" fill="#C69866"/>
<path d="M423.346 700.219C422.998 700.219 422.656 700.355 422.401 700.61L408.804 714.205L410.691 716.092L422.01 704.775V722.582H424.681V701.551C424.681 701.012 424.355 700.525 423.858 700.317C423.693 700.248 423.519 700.216 423.347 700.216L423.346 700.219Z" fill="#C69866"/>
<path d="M389.658 732.944H386.987V741.924C386.987 742.279 387.128 742.617 387.378 742.868L404.765 760.252C405.146 760.634 405.72 760.748 406.22 760.542C406.719 760.335 407.043 759.849 407.043 759.308V742.452H404.372V756.085L389.655 741.37V732.944H389.658Z" fill="#C69866"/>
<path d="M372.024 723.301H369.354V759.308C369.354 759.847 369.679 760.334 370.177 760.542C370.678 760.748 371.25 760.634 371.632 760.252L389.018 742.868C389.268 742.619 389.409 742.279 389.409 741.924V732.809H386.738V741.37L372.021 756.085V723.301H372.024Z" fill="#C69866"/>
<path d="M354.389 713.657H351.718V741.922C351.718 742.277 351.859 742.615 352.109 742.867L369.495 760.25C369.877 760.632 370.451 760.746 370.95 760.54C371.449 760.334 371.773 759.847 371.773 759.306V723.163H369.102V756.084L354.385 741.368V713.655L354.389 713.657Z" fill="#C69866"/>
<path d="M346.356 706.116L334.474 717.996C334.224 718.245 334.083 718.586 334.083 718.94V759.308C334.083 759.847 334.409 760.334 334.906 760.542C335.408 760.748 335.979 760.634 336.361 760.252L353.748 742.868C353.997 742.619 354.139 742.279 354.139 741.924V713.523H351.468V741.372L336.75 756.087V719.494L348.241 708.005L346.354 706.118L346.356 706.116Z" fill="#C69866"/>
<path d="M317.782 700.219C317.61 700.219 317.436 700.252 317.272 700.321C316.772 700.527 316.448 701.014 316.448 701.555V741.924C316.448 742.279 316.589 742.617 316.839 742.868L334.226 760.252C334.607 760.634 335.181 760.748 335.68 760.542C336.18 760.335 336.504 759.849 336.504 759.308V718.94C336.504 718.586 336.363 718.247 336.113 717.996L318.726 700.61C318.471 700.355 318.129 700.219 317.782 700.219ZM319.119 741.37V704.777L333.836 719.492V756.085L319.119 741.37Z" fill="#C69866"/>
<path d="M317.536 700.219C317.189 700.219 316.847 700.355 316.592 700.61L299.205 717.996C298.956 718.245 298.814 718.586 298.814 718.94V759.308C298.814 759.847 299.14 760.334 299.638 760.542C300.139 760.748 300.711 760.634 301.093 760.252L318.479 742.868C318.729 742.619 318.87 742.279 318.87 741.924V701.555C318.87 701.015 318.544 700.529 318.047 700.321C317.882 700.252 317.708 700.219 317.536 700.219ZM301.484 719.492L316.201 704.777V741.37L301.484 756.085V719.492Z" fill="#C69866"/>
<path d="M282.513 700.219C282.341 700.219 282.168 700.252 282.003 700.321C281.504 700.527 281.18 701.014 281.18 701.555V741.924C281.18 742.279 281.321 742.617 281.571 742.868L298.957 760.252C299.339 760.634 299.912 760.748 300.412 760.542C300.911 760.335 301.235 759.849 301.235 759.308V718.94C301.235 718.586 301.094 718.247 300.844 717.996L283.458 700.61C283.203 700.355 282.861 700.219 282.513 700.219ZM283.849 741.37V704.777L298.566 719.492V756.085L283.849 741.37Z" fill="#C69866"/>
<path d="M282.265 700.219C281.917 700.219 281.575 700.355 281.32 700.61L263.934 717.996C263.684 718.245 263.543 718.586 263.543 718.94V759.308C263.543 759.847 263.869 760.334 264.366 760.542C264.868 760.748 265.439 760.634 265.821 760.252L283.208 742.868C283.457 742.619 283.599 742.279 283.599 741.924V701.555C283.599 701.015 283.273 700.529 282.775 700.321C282.611 700.252 282.437 700.219 282.265 700.219ZM266.214 719.492L280.931 704.777V741.37L266.214 756.085V719.492Z" fill="#C69866"/>
<path d="M257.148 709.57L255.261 711.457L263.297 719.492V756.085L248.58 741.37V716.443H245.909V741.922C245.909 742.277 246.05 742.615 246.3 742.867L263.687 760.25C264.068 760.632 264.642 760.746 265.141 760.54C265.641 760.334 265.965 759.847 265.965 759.306V718.938C265.965 718.584 265.824 718.245 265.574 717.994L257.147 709.568L257.148 709.57Z" fill="#C69866"/>
<path d="M248.33 716.579H245.659V741.37L230.941 756.085V726.087H228.271V759.308C228.271 759.847 228.596 760.334 229.094 760.542C229.595 760.748 230.167 760.634 230.549 760.252L247.935 742.868C248.185 742.619 248.326 742.279 248.326 741.924V716.581L248.33 716.579Z" fill="#C69866"/>
<path d="M230.696 726.223H228.025V756.085L213.308 741.37V735.731H210.637V741.922C210.637 742.277 210.778 742.615 211.028 742.867L228.414 760.25C228.796 760.632 229.37 760.746 229.869 760.54C230.368 760.334 230.692 759.847 230.692 759.306V726.221L230.696 726.223Z" fill="#C69866"/>
<path d="M211.973 700.218C211.801 700.218 211.628 700.251 211.463 700.32C210.964 700.526 210.64 701.013 210.64 701.554V706.221H213.311V704.777L214.049 705.513L215.936 703.626L212.92 700.609C212.665 700.354 212.323 700.218 211.975 700.218H211.973Z" fill="#C69866"/>
<path d="M213.062 735.866H210.391V741.37L195.674 756.085V745.374H193.003V759.308C193.003 759.847 193.329 760.334 193.826 760.542C194.328 760.748 194.899 760.634 195.281 760.252L212.668 742.868C212.917 742.619 213.059 742.279 213.059 741.924V735.868L213.062 735.866Z" fill="#C69866"/>
<path d="M211.727 700.219C211.379 700.219 211.037 700.355 210.782 700.61L200.184 711.207L202.071 713.094L210.39 704.777V706.355H213.061V701.553C213.061 701.014 212.735 700.527 212.237 700.319C212.073 700.25 211.899 700.217 211.727 700.217V700.219Z" fill="#C69866"/>
<path d="M176.704 700.219C176.532 700.219 176.358 700.252 176.193 700.321C175.696 700.527 175.37 701.014 175.37 701.555V725.508H178.041V704.777L191.249 717.983L193.137 716.096L177.65 700.612C177.395 700.357 177.053 700.221 176.706 700.221L176.704 700.219Z" fill="#C69866"/>
<path d="M195.426 745.51H192.755V756.085L186.114 749.445L184.227 751.332L193.148 760.252C193.528 760.634 194.103 760.748 194.603 760.542C195.102 760.335 195.426 759.849 195.426 759.308V745.51Z" fill="#C69866"/>
<path d="M176.456 700.219C176.109 700.219 175.767 700.355 175.512 700.61L158.125 717.996C157.876 718.245 157.734 718.586 157.734 718.94V735.152H160.405V719.494L175.123 704.779V725.644H177.794V701.555C177.794 701.015 177.468 700.529 176.97 700.321C176.806 700.252 176.632 700.219 176.46 700.219H176.456Z" fill="#C69866"/>
<path d="M141.432 700.219C141.26 700.219 141.087 700.252 140.922 700.321C140.423 700.527 140.099 701.014 140.099 701.555V741.924C140.099 742.279 140.24 742.617 140.49 742.868L142.346 744.725L144.234 742.838L142.768 741.372V704.779L157.485 719.494V735.287H160.156V718.94C160.156 718.586 160.015 718.247 159.765 717.996L142.379 700.61C142.124 700.355 141.782 700.219 141.434 700.219H141.432Z" fill="#C69866"/>
<path d="M141.187 700.219C140.839 700.219 140.497 700.355 140.242 700.61L122.856 717.996C122.606 718.245 122.465 718.586 122.465 718.94V754.439H125.136V719.494L139.853 704.779V741.372L133.606 747.618L135.494 749.505L142.131 742.868C142.381 742.619 142.522 742.279 142.522 741.924V701.555C142.522 701.015 142.197 700.529 141.699 700.321C141.534 700.252 141.361 700.219 141.189 700.219H141.187Z" fill="#C69866"/>
<path d="M106.163 700.219C105.991 700.219 105.817 700.252 105.652 700.321C105.153 700.527 104.829 701.014 104.829 701.555V741.924C104.829 742.279 104.97 742.617 105.22 742.868L119.546 757.193L121.434 755.306L107.498 741.372V704.779L122.216 719.494V754.575H124.887V718.94C124.887 718.586 124.745 718.247 124.496 717.996L107.109 700.61C106.854 700.355 106.512 700.219 106.165 700.219H106.163Z" fill="#C69866"/>
<path d="M105.916 700.219C105.569 700.219 105.227 700.355 104.972 700.61L87.5852 717.996C87.3355 718.245 87.1943 718.586 87.1943 718.94V759.308C87.1943 759.847 87.5201 760.334 88.0177 760.542C88.5189 760.748 89.0908 760.634 89.4726 760.252L106.859 742.868C107.109 742.619 107.25 742.279 107.25 741.924V701.555C107.25 701.015 106.924 700.529 106.427 700.321C106.262 700.252 106.088 700.219 105.916 700.219ZM89.8635 719.492L104.581 704.777V741.37L89.8635 756.085V719.492Z" fill="#C69866"/>
<path d="M70.8932 700.219C70.7213 700.219 70.5476 700.252 70.3829 700.321C69.8835 700.527 69.5596 701.014 69.5596 701.555V741.924C69.5596 742.279 69.7007 742.617 69.9504 742.868L87.3369 760.252C87.7187 760.634 88.2924 760.748 88.7918 760.542C89.2913 760.335 89.6152 759.849 89.6152 759.308V718.94C89.6152 718.586 89.474 718.247 89.2243 717.996L71.8378 700.61C71.5827 700.355 71.2407 700.219 70.8932 700.219ZM72.2287 741.37V704.777L86.946 719.492V756.085L72.2287 741.37Z" fill="#C69866"/>
<path d="M70.6458 700.219C70.2983 700.219 69.9563 700.355 69.7012 700.61L52.3147 717.996C52.065 718.245 51.9238 718.586 51.9238 718.94V759.308C51.9238 759.847 52.2496 760.334 52.7472 760.542C53.2484 760.748 53.8203 760.634 54.2021 760.252L71.5886 742.868C71.8383 742.619 71.9794 742.279 71.9794 741.924V701.555C71.9794 701.015 71.6537 700.529 71.1561 700.321C70.9914 700.252 70.8177 700.219 70.6458 700.219ZM54.593 719.492L69.3103 704.777V741.37L54.593 756.085V719.492Z" fill="#C69866"/>
<path d="M40.8817 723.925L51.7695 734.812L40.8817 745.698L29.9938 734.812L40.8817 723.925Z" fill="#C69866"/>
<path d="M32.1762 724.598L21.9629 734.81L32.1762 745.023L33.309 743.891L24.2285 734.81L33.309 725.731L32.1762 724.598Z" fill="#C69866"/>
<path d="M12.9273 722.792L0.90625 734.81L12.9273 746.829L17.6105 742.146L16.4777 741.014L12.9273 744.564L3.17185 734.81L12.9273 725.056L16.4777 728.607L17.6105 727.475L12.9273 722.792Z" fill="#C69866"/>
<path d="M39.9589 744.772L26.5535 758.175L13.501 745.125L12.3682 746.257L26.5535 760.44L41.0917 745.904L39.9589 744.772Z" fill="#C69866"/>
<path d="M26.5534 717.4L9.1416 734.81L26.5534 752.221L37.0291 741.745L35.8963 740.612L26.5534 749.955L11.4072 734.81L26.5534 719.666L35.8963 729.007L37.0291 727.876L26.5534 717.4Z" fill="#5E4123"/>
<path d="M27.3534 759.08H25.752V751.065H27.3534V759.08Z" fill="#C69866"/>
<path d="M41.1614 723.789L40.0286 724.922L45.8084 730.701L35.8955 740.612L37.0283 741.745L48.074 730.701L41.1614 723.789Z" fill="#C69866"/>
<path d="M26.5535 709.181L12.3682 723.364L13.501 724.497L26.5535 711.446L40.0294 724.922L41.1622 723.789L26.5535 709.181Z" fill="#C69866"/>
<path d="M27.3534 718.557H25.752V710.541H27.3534V718.557Z" fill="#C69866"/>
<path d="M23.1105 685.957L12.2227 696.843L1.33481 685.957L12.2227 675.07L23.1105 685.957Z" fill="#C69866"/>
<path d="M20.9297 675.743L19.7969 676.876L28.8774 685.955L19.7969 695.036L20.9297 696.168L31.143 685.955L20.9297 675.743Z" fill="#C69866"/>
<path d="M40.1783 673.935L35.4951 678.618L36.6279 679.751L40.1783 676.201L49.9338 685.955L40.1783 695.709L36.6279 692.159L35.4951 693.292L40.1783 697.974L52.1994 685.955L40.1783 673.935Z" fill="#C69866"/>
<path d="M13.1484 695.917L12.0156 697.049L26.5538 711.585L40.7391 697.402L39.6063 696.27L26.5538 709.32L13.1484 695.917Z" fill="#C69866"/>
<path d="M26.5538 668.545L16.0781 679.02L17.2109 680.152L26.5538 670.811L41.7 685.955L26.5538 701.1L17.2109 691.759L16.0781 692.892L26.5538 703.364L43.9656 685.955L26.5538 668.545Z" fill="#FFE8D2"/>
<path d="M27.3534 710.225H25.752V702.21H27.3534V710.225Z" fill="#C69866"/>
<path d="M11.9439 674.932L5.03125 681.846L16.0788 692.892L17.2116 691.759L7.29685 681.846L13.0767 676.065L11.9439 674.932Z" fill="#C69866"/>
<path d="M26.553 660.326L11.9424 674.932L13.0752 676.065L26.553 662.591L39.6055 675.642L40.7383 674.509L26.553 660.326Z" fill="#C69866"/>
<path d="M27.3534 669.702H25.752V661.686H27.3534V669.702Z" fill="#C69866"/>
<path d="M40.8827 626.214L51.7705 637.101L40.8827 647.987L29.9948 637.101L40.8827 626.214Z" fill="#C69866"/>
<path d="M32.1762 626.888L21.9629 637.1L32.1762 647.313L33.309 646.181L24.2285 637.1L33.309 628.021L32.1762 626.888Z" fill="#C69866"/>
<path d="M12.9273 625.08L0.90625 637.1L12.9273 649.119L17.6105 644.436L16.4777 643.304L12.9273 646.854L3.17185 637.1L12.9273 627.346L16.4777 630.897L17.6105 629.765L12.9273 625.08Z" fill="#C69866"/>
<path d="M39.9589 647.062L26.5535 660.465L13.501 647.415L12.3682 648.547L26.5535 662.73L41.0917 648.194L39.9589 647.062Z" fill="#C69866"/>
<path d="M26.5534 619.69L9.1416 637.1L26.5534 654.509L37.0291 644.035L35.8963 642.902L26.5534 652.244L11.4072 637.1L26.5534 621.956L35.8963 631.297L37.0291 630.165L26.5534 619.69Z" fill="#5E4123"/>
<path d="M27.3534 661.37H25.752V653.354H27.3534V661.37Z" fill="#C69866"/>
<path d="M41.1614 626.077L40.0286 627.21L45.8084 632.989L35.8955 642.902L37.0283 644.035L48.074 632.989L41.1614 626.077Z" fill="#C69866"/>
<path d="M26.5535 611.469L12.3682 625.654L13.501 626.787L26.5535 613.734L40.0294 627.21L41.1622 626.077L26.5535 611.469Z" fill="#C69866"/>
<path d="M27.3534 620.847H25.752V612.831H27.3534V620.847Z" fill="#C69866"/>
<path d="M23.1105 588.246L12.2227 599.132L1.33481 588.246L12.2227 577.359L23.1105 588.246Z" fill="#C69866"/>
<path d="M20.9297 578.033L19.7969 579.166L28.8774 588.245L19.7969 597.324L20.9297 598.456L31.143 588.245L20.9297 578.033Z" fill="#C69866"/>
<path d="M40.1783 576.225L35.4951 580.908L36.6279 582.041L40.1783 578.491L49.9338 588.245L40.1783 597.999L36.6279 594.449L35.4951 595.581L40.1783 600.264L52.1994 588.245L40.1783 576.225Z" fill="#C69866"/>
<path d="M13.1484 598.207L12.0156 599.339L26.5538 613.875L40.7391 599.692L39.6063 598.56L26.5538 611.61L13.1484 598.207Z" fill="#C69866"/>
<path d="M26.5538 570.835L16.0781 581.31L17.2109 582.442L26.5538 573.101L41.7 588.245L26.5538 603.389L17.2109 594.047L16.0781 595.18L26.5538 605.654L43.9656 588.245L26.5538 570.835Z" fill="#FFE8D2"/>
<path d="M27.3534 612.513H25.752V604.498H27.3534V612.513Z" fill="#C69866"/>
<path d="M11.9439 577.222L5.03125 584.136L16.0788 595.18L17.2116 594.047L7.29685 584.136L13.0767 578.355L11.9439 577.222Z" fill="#C69866"/>
<path d="M26.553 562.616L11.9424 577.222L13.0752 578.355L26.553 564.881L39.6055 577.93L40.7383 576.797L26.553 562.616Z" fill="#C69866"/>
<path d="M27.3534 571.992H25.752V563.976H27.3534V571.992Z" fill="#C69866"/>
<path d="M40.8836 528.504L51.7715 539.39L40.8836 550.276L29.9958 539.39L40.8836 528.504Z" fill="#C69866"/>
<path d="M32.1762 529.178L21.9629 539.39L32.1762 549.601L33.309 548.469L24.2285 539.39L33.309 530.311L32.1762 529.178Z" fill="#C69866"/>
<path d="M12.9273 527.37L0.90625 539.39L12.9273 551.409L17.6105 546.726L16.4777 545.594L12.9273 549.144L3.17185 539.39L12.9273 529.636L16.4777 533.185L17.6105 532.053L12.9273 527.37Z" fill="#C69866"/>
<path d="M39.9589 549.352L26.5535 562.755L13.501 549.704L12.3682 550.837L26.5535 565.02L41.0917 550.484L39.9589 549.352Z" fill="#C69866"/>
<path d="M26.5534 521.98L9.1416 539.39L26.5534 556.799L37.0291 546.325L35.8963 545.192L26.5534 554.534L11.4072 539.39L26.5534 524.246L35.8963 533.587L37.0291 532.454L26.5534 521.98Z" fill="#5E4123"/>
<path d="M27.3534 563.658H25.752V555.643H27.3534V563.658Z" fill="#C69866"/>
<path d="M41.1614 528.367L40.0286 529.5L45.8084 535.279L35.8955 545.192L37.0283 546.325L48.074 535.279L41.1614 528.367Z" fill="#C69866"/>
<path d="M26.5535 513.759L12.3682 527.944L13.501 529.077L26.5535 516.024L40.0294 529.5L41.1622 528.367L26.5535 513.759Z" fill="#C69866"/>
<path d="M27.3534 523.137H25.752V515.121H27.3534V523.137Z" fill="#C69866"/>
<path d="M116.884 634.948C118.316 633.517 118.316 631.198 116.884 629.768C115.453 628.339 113.133 628.337 111.703 629.768C110.272 631.2 110.272 633.519 111.703 634.948C113.135 636.378 115.455 636.38 116.884 634.948Z" fill="#5E4123"/>
<path d="M569.739 734.811L558.852 745.697L547.964 734.811L558.852 723.925L569.739 734.811Z" fill="#C69866"/>
<path d="M567.558 724.598L566.425 725.731L575.505 734.81L566.425 743.891L567.558 745.023L577.771 734.81L567.558 724.598Z" fill="#C69866"/>
<path d="M586.806 722.792L582.123 727.475L583.256 728.607L586.806 725.056L596.562 734.81L586.806 744.564L583.256 741.014L582.123 742.146L586.806 746.829L598.827 734.81L586.806 722.792Z" fill="#C69866"/>
<path d="M559.774 744.772L558.642 745.904L573.18 760.44L587.365 746.257L586.232 745.125L573.18 758.175L559.774 744.772Z" fill="#C69866"/>
<path d="M573.179 717.4L562.703 727.876L563.836 729.007L573.179 719.666L588.325 734.81L573.179 749.955L563.836 740.612L562.703 741.745L573.179 752.221L590.591 734.81L573.179 717.4Z" fill="#C69866"/>
<path d="M573.981 759.08H572.38V751.065H573.981V759.08Z" fill="#C69866"/>
<path d="M558.57 723.789L551.657 730.701L562.703 741.745L563.836 740.612L553.923 730.701L559.703 724.922L558.57 723.789Z" fill="#C69866"/>
<path d="M573.179 709.181L558.57 723.789L559.703 724.922L573.179 711.446L586.232 724.497L587.364 723.364L573.179 709.181Z" fill="#C69866"/>
<path d="M573.981 718.557H572.38V710.541H573.981V718.557Z" fill="#C69866"/>
<path d="M587.511 675.07L598.398 685.956L587.511 696.842L576.623 685.956L587.511 675.07Z" fill="#C69866"/>
<path d="M578.804 675.743L568.591 685.955L578.804 696.168L579.937 695.036L570.856 685.955L579.937 676.876L578.804 675.743Z" fill="#C69866"/>
<path d="M559.555 673.935L547.534 685.955L559.555 697.974L564.238 693.292L563.106 692.159L559.555 695.709L549.8 685.955L559.555 676.201L563.106 679.751L564.238 678.618L559.555 673.935Z" fill="#C69866"/>
<path d="M586.585 695.917L573.179 709.32L560.127 696.27L558.994 697.402L573.179 711.585L587.718 697.049L586.585 695.917Z" fill="#C69866"/>
<path d="M573.18 668.545L555.769 685.955L573.18 703.364L583.656 692.892L582.523 691.759L573.18 701.1L558.034 685.955L573.18 670.811L582.523 680.152L583.656 679.02L573.18 668.545Z" fill="#5E4123"/>
<path d="M573.981 710.225H572.38V702.21H573.981V710.225Z" fill="#C69866"/>
<path d="M587.79 674.932L586.657 676.065L592.437 681.846L582.522 691.759L583.655 692.892L594.703 681.846L587.79 674.932Z" fill="#C69866"/>
<path d="M573.179 660.326L558.994 674.509L560.127 675.642L573.179 662.591L586.657 676.065L587.79 674.932L573.179 660.326Z" fill="#C69866"/>
<path d="M573.981 669.702H572.38V661.686H573.981V669.702Z" fill="#C69866"/>
<path d="M569.74 637.102L558.853 647.988L547.965 637.102L558.853 626.216L569.74 637.102Z" fill="#C69866"/>
<path d="M567.558 626.888L566.425 628.021L575.505 637.1L566.425 646.181L567.558 647.313L577.771 637.1L567.558 626.888Z" fill="#C69866"/>
<path d="M586.806 625.08L582.123 629.765L583.256 630.897L586.806 627.346L596.562 637.1L586.806 646.854L583.256 643.304L582.123 644.436L586.806 649.119L598.827 637.1L586.806 625.08Z" fill="#C69866"/>
<path d="M559.774 647.062L558.642 648.194L573.18 662.73L587.365 648.547L586.232 647.415L573.18 660.465L559.774 647.062Z" fill="#C69866"/>
<path d="M573.179 619.69L562.703 630.165L563.836 631.297L573.179 621.956L588.325 637.1L573.179 652.244L563.836 642.902L562.703 644.035L573.179 654.509L590.591 637.1L573.179 619.69Z" fill="#C69866"/>
<path d="M573.981 661.37H572.38V653.354H573.981V661.37Z" fill="#C69866"/>
<path d="M558.57 626.077L551.657 632.989L562.703 644.035L563.836 642.902L553.923 632.989L559.703 627.21L558.57 626.077Z" fill="#C69866"/>
<path d="M573.179 611.469L558.57 626.077L559.703 627.21L573.179 613.734L586.232 626.787L587.364 625.654L573.179 611.469Z" fill="#C69866"/>
<path d="M573.981 620.847H572.38V612.831H573.981V620.847Z" fill="#C69866"/>
<path d="M587.511 577.359L598.398 588.245L587.511 599.131L576.623 588.245L587.511 577.359Z" fill="#C69866"/>
<path d="M578.804 578.033L568.591 588.245L578.804 598.456L579.937 597.324L570.856 588.245L579.937 579.166L578.804 578.033Z" fill="#C69866"/>
<path d="M559.555 576.225L547.534 588.245L559.555 600.264L564.238 595.581L563.106 594.449L559.555 597.999L549.8 588.245L559.555 578.491L563.106 582.041L564.238 580.908L559.555 576.225Z" fill="#C69866"/>
<path d="M586.585 598.207L573.179 611.61L560.127 598.56L558.994 599.692L573.179 613.875L587.718 599.339L586.585 598.207Z" fill="#C69866"/>
<path d="M573.18 570.835L555.769 588.245L573.18 605.654L583.656 595.18L582.523 594.047L573.18 603.389L558.034 588.245L573.18 573.101L582.523 582.442L583.656 581.31L573.18 570.835Z" fill="#FFE8D2"/>
<path d="M573.981 612.513H572.38V604.498H573.981V612.513Z" fill="#C69866"/>
<path d="M587.79 577.222L586.657 578.355L592.437 584.136L582.522 594.047L583.655 595.18L594.703 584.136L587.79 577.222Z" fill="#C69866"/>
<path d="M573.179 562.616L558.994 576.797L560.127 577.93L573.179 564.881L586.657 578.355L587.79 577.222L573.179 562.616Z" fill="#C69866"/>
<path d="M573.981 571.992H572.38V563.976H573.981V571.992Z" fill="#C69866"/>
<path d="M569.739 539.391L558.852 550.277L547.964 539.391L558.852 528.504L569.739 539.391Z" fill="#C69866"/>
<path d="M567.558 529.178L566.425 530.311L575.505 539.39L566.425 548.469L567.558 549.601L577.771 539.39L567.558 529.178Z" fill="#C69866"/>
<path d="M586.806 527.37L582.123 532.053L583.256 533.185L586.806 529.636L596.562 539.39L586.806 549.144L583.256 545.594L582.123 546.726L586.806 551.409L598.827 539.39L586.806 527.37Z" fill="#C69866"/>
<path d="M559.774 549.352L558.642 550.484L573.18 565.02L587.365 550.837L586.232 549.704L573.18 562.755L559.774 549.352Z" fill="#C69866"/>
<path d="M573.179 521.98L562.703 532.454L563.836 533.587L573.179 524.246L588.325 539.39L573.179 554.534L563.836 545.192L562.703 546.325L573.179 556.799L590.591 539.39L573.179 521.98Z" fill="#C69866"/>
<path d="M573.981 563.658H572.38V555.643H573.981V563.658Z" fill="#C69866"/>
<path d="M558.57 528.367L551.657 535.279L562.703 546.325L563.836 545.192L553.923 535.279L559.703 529.5L558.57 528.367Z" fill="#C69866"/>
<path d="M573.179 513.759L558.57 528.367L559.703 529.5L573.179 516.024L586.232 529.077L587.364 527.944L573.179 513.759Z" fill="#C69866"/>
<path d="M573.981 523.137H572.38V515.121H573.981V523.137Z" fill="#C69866"/>
<path d="M482.849 634.948C481.418 633.517 481.418 631.198 482.849 629.768C484.28 628.337 486.6 628.337 488.03 629.768C489.461 631.199 489.461 633.519 488.03 634.948C486.598 636.38 484.278 636.38 482.849 634.948Z" fill="#5E4123"/>
<path d="M599.696 730.956C599.696 747.525 586.264 760.956 569.696 760.956H30C13.4315 760.956 0 747.525 0 730.956V30.0046C0 13.4361 13.4315 0.00457764 30 0.00457764H569.696C586.264 0.00457764 599.696 13.436 599.696 30.0046V730.956ZM2.66897 728.794C2.66897 745.363 16.1004 758.794 32.669 758.794H567.025C583.593 758.794 597.025 745.363 597.025 728.794V32.1682C597.025 15.5997 583.594 2.16818 567.025 2.16818H32.669C16.1004 2.16818 2.66897 15.5996 2.66897 32.1682V728.794Z" fill="#C69866"/>
<path d="M599.734 731C599.734 747.569 586.302 761 569.734 761H30C13.4314 761 0 747.569 0 731V30C0 13.4314 13.4315 0 30 0H569.734C586.302 0 599.734 13.4315 599.734 30V731ZM2.66913 728.838C2.66913 745.406 16.1006 758.838 32.6691 758.838H567.063C583.631 758.838 597.063 745.406 597.063 728.838V32.1638C597.063 15.5952 583.631 2.16374 567.063 2.16374H32.6691C16.1006 2.16374 2.66913 15.5952 2.66913 32.1637V728.838Z" fill="#C69866"/>
</svg>
